<svg width="19" height="25" viewBox="0 0 19 25" fill="none" xmlns="http://www.w3.org/2000/svg">
<path d="M11.0625 6.64062V0H1.29688C0.647461 0 0.125 0.522461 0.125 1.17188V23.8281C0.125 24.4775 0.647461 25 1.29688 25H17.7031C18.3525 25 18.875 24.4775 18.875 23.8281V7.8125H12.2344C11.5898 7.8125 11.0625 7.28516 11.0625 6.64062ZM13.9971 11.8408L11.0625 16.4062L13.9971 20.9717C14.2461 21.3623 13.9678 21.875 13.5039 21.875H11.7998C11.585 21.875 11.3848 21.7578 11.2822 21.5674C10.3252 19.7998 9.5 18.2129 9.5 18.2129C9.1875 18.9355 9.01172 19.1895 7.71289 21.5723C7.61035 21.7627 7.41504 21.8799 7.2002 21.8799H5.49609C5.03223 21.8799 4.75391 21.3672 5.00293 20.9766L7.94727 16.4111L5.00293 11.8457C4.74902 11.4551 5.03223 10.9424 5.49609 10.9424H7.19531C7.41016 10.9424 7.61035 11.0596 7.71289 11.25C8.9873 13.6328 8.68945 12.8906 9.5 14.5947C9.5 14.5947 9.79785 14.0234 11.2871 11.25C11.3896 11.0596 11.5898 10.9424 11.8047 10.9424H13.5039C13.9678 10.9375 14.2461 11.4502 13.9971 11.8408ZM18.875 5.95215V6.25H12.625V0H12.9229C13.2354 0 13.5332 0.12207 13.7529 0.341797L18.5332 5.12695C18.7529 5.34668 18.875 5.64453 18.875 5.95215Z" fill="#107C41"/>
</svg>
