<svg width="22" height="22" viewBox="0 0 22 22" fill="none" xmlns="http://www.w3.org/2000/svg">
<path d="M21.1885 4.78228L17.0927 0.686475C16.6532 0.246935 16.057 3.25037e-06 15.4354 0H2.34375C1.04932 0 0 1.04932 0 2.34375V19.5312C0 20.8257 1.04932 21.875 2.34375 21.875H19.5312C20.8257 21.875 21.875 20.8257 21.875 19.5312V6.43955C21.875 5.81795 21.6281 5.22181 21.1885 4.78228ZM10.9375 18.75C9.21162 18.75 7.8125 17.3509 7.8125 15.625C7.8125 13.8991 9.21162 12.5 10.9375 12.5C12.6634 12.5 14.0625 13.8991 14.0625 15.625C14.0625 17.3509 12.6634 18.75 10.9375 18.75ZM15.625 3.88086V8.78906C15.625 9.11265 15.3626 9.375 15.0391 9.375H3.71094C3.38735 9.375 3.125 9.11265 3.125 8.78906V3.71094C3.125 3.38735 3.38735 3.125 3.71094 3.125H14.8691C15.0246 3.125 15.1736 3.18672 15.2834 3.29663L15.4534 3.46655C15.5078 3.52095 15.551 3.58554 15.5804 3.65663C15.6099 3.72772 15.625 3.80391 15.625 3.88086Z" fill="#0710F9"/>
</svg>
