<svg width="32" height="32" viewBox="0 0 32 32" fill="none" xmlns="http://www.w3.org/2000/svg">
<g clip-path="url(#clip0_345_18)">
<path d="M27 0H5C2.23858 0 0 2.23858 0 5V27C0 29.7614 2.23858 32 5 32H27C29.7614 32 32 29.7614 32 27V5C32 2.23858 29.7614 0 27 0Z" fill="black"/>
<path d="M7 25V7H10.6V25H7ZM11.8 25V7H13V25H11.8ZM14.2 25V16V7H17.8V25H14.2ZM21.4 25V7H22.6V25H21.4ZM23.8 25V7H25V25H23.8Z" fill="white"/>
</g>
<defs>
<clipPath id="clip0_345_18">
<rect width="32" height="32" rx="5" fill="white"/>
</clipPath>
</defs>
</svg>
