<svg width="25" height="19" viewBox="0 0 25 19" fill="none" xmlns="http://www.w3.org/2000/svg">
<path d="M24.2676 10.3301L16.0645 18.5332C15.332 19.2656 14.0625 18.7529 14.0625 17.7031V13.0156H7.42188C6.77246 13.0156 6.25 12.4932 6.25 11.8438V7.15625C6.25 6.50684 6.77246 5.98438 7.42188 5.98438H14.0625V1.29688C14.0625 0.251954 15.3271 -0.265624 16.0645 0.466798L24.2676 8.66992C24.7217 9.12891 24.7217 9.87109 24.2676 10.3301ZM9.375 18.2891V16.3359C9.375 16.0137 9.11133 15.75 8.78906 15.75H4.6875C3.82324 15.75 3.125 15.0518 3.125 14.1875V4.8125C3.125 3.94824 3.82324 3.25 4.6875 3.25H8.78906C9.11133 3.25 9.375 2.98633 9.375 2.66406V0.710938C9.375 0.388673 9.11133 0.125001 8.78906 0.125001H4.6875C2.09961 0.125001 0 2.22461 0 4.8125V14.1875C0 16.7754 2.09961 18.875 4.6875 18.875H8.78906C9.11133 18.875 9.375 18.6113 9.375 18.2891Z" fill="#EC4646"/>
</svg>
